<?xml version="1.0" encoding="utf-8"?>
<!-- Generator: Adobe Illustrator 26.4.1, SVG Export Plug-In . SVG Version: 6.00 Build 0)  -->
<svg version="1.1" id="Layer_1" xmlns="http://www.w3.org/2000/svg" xmlns:xlink="http://www.w3.org/1999/xlink" x="0px" y="0px"
	 viewBox="0 0 262.2 343.7" style="enable-background:new 0 0 262.2 343.7;" xml:space="preserve">
<style type="text/css">
	.st0{fill:#F89420;}
</style>
<g>
	<path class="st0" d="M30.4,0c42.3,0,84.5,0,126.8,0c0.1,1.6,0.2,3.1,0.2,4.7c0,23.2,0,46.5,0,69.7c0,3.7,0.4,7.4,1.7,10.9
		c3.7,9.6,12.2,15,23.5,15.1c25,0,50.1,0.1,75.1-0.1c3.3,0,4.4,0.9,4.4,4.3c-0.1,67.6,0,135.2-0.1,202.9c0,19.6-16.6,36.1-36.2,36.1
		c-63.1,0.1-126.3,0.1-189.4,0C16.6,343.6,0,327.1,0,307.3C0,216.8,0,126.4,0,36c0-6.4,1.8-12.4,5-17.9C10.7,8.3,19.6,2.7,30.4,0z
		 M129.1,154c23.6,0,47.1,0,70.7,0c7.8,0,12.7-3.8,12.8-9.8c0-6-4.9-9.8-12.7-9.8c-47.2,0-94.5,0-141.7,0c-7.7,0-12.7,4-12.6,9.9
		c0.1,5.9,5,9.7,12.5,9.7C81.7,154,105.4,154,129.1,154z M129.1,207.7c23.6,0,47.1,0,70.7,0c7.8,0,12.7-3.7,12.8-9.8
		c0.1-6-4.9-9.8-12.7-9.8c-47.2,0-94.5,0-141.7,0c-7.7,0-12.7,3.9-12.6,9.9c0.1,5.9,5,9.7,12.5,9.7
		C81.7,207.7,105.4,207.7,129.1,207.7z M79.7,261.3c7.7,0,15.4,0.1,23.1,0c7-0.1,11.2-4.5,10.6-11c-0.5-5.2-4.6-8.5-11-8.6
		c-10.6-0.1-21.2,0-31.8,0c-4.8,0-9.6-0.1-14.4,0c-6.1,0.1-10.7,4.4-10.7,9.8c0,5.4,4.6,9.5,10.7,9.8c0.8,0,1.6,0,2.3,0
		C65.7,261.3,72.7,261.3,79.7,261.3z"/>
	<path class="st0" d="M217.7,80.7c-11.5,0-23,0-34.5,0c-5.3,0-6.1-0.8-6.1-5.9c0-22.2,0-44.5,0-66.7c0-1.2-0.6-2.7,0.7-3.4
		c1.2-0.6,2.3,0.6,3.3,1.3c7.4,5.4,13.6,12.2,20.3,18.5c16.3,15.3,32.5,30.7,48.7,46.1c2,1.9,3.9,4,5.4,6.4c0.7,1,1.8,2,1.2,3.3
		c-0.6,1.1-2,0.6-3.1,0.6C241.6,80.8,229.7,80.7,217.7,80.7z"/>
</g>
</svg>
