<?xml version="1.0" encoding="utf-8"?>
<!-- Generator: Adobe Illustrator 25.2.3, SVG Export Plug-In . SVG Version: 6.00 Build 0)  -->
<svg version="1.1" id="Group_172" xmlns="http://www.w3.org/2000/svg" xmlns:xlink="http://www.w3.org/1999/xlink" x="0px" y="0px"
	 viewBox="0 0 112.5 92.8" style="enable-background:new 0 0 112.5 92.8;" xml:space="preserve">
<style type="text/css">
	.st0{clip-path:url(#SVGID_2_);}
	.st1{fill:#00AEF0;}
	.st2{fill:#F89420;}
	.st3{fill:#FFFFFF;}
</style>
<g>
	<defs>
		<rect id="SVGID_1_" x="0" y="0" width="112.5" height="92.8"/>
	</defs>
	<clipPath id="SVGID_2_">
		<use xlink:href="#SVGID_1_"  style="overflow:visible;"/>
	</clipPath>
	<g id="Group_171" class="st0">
		<path id="Path_214" class="st1" d="M10.2,52.3c38.5-7.3,59.6,1.3,64.3,3.8c15.1,7.7,14.3,17.6,13,21.3c-0.7,1.9-2,0.2-2,0.2
			S72.3,52.4,10.2,52.3"/>
		<path id="Path_215" class="st2" d="M71.7,69.3c7.6,4.5,9.7,13.1,8.3,16.1c-0.9,2-2.1,0.7-2.1,0.7s-14.5-17-53.5-22
			C51.8,61.3,63.3,64.7,71.7,69.3"/>
		<path id="Path_216" class="st3" d="M35.9,10.4c0,0,27.3-0.1,29.8,0c8.3-0.5,22.2,5.5,21.7,20.1c-1.3,12.2-11,15.4-11,15.4
			s14.4,3.2,14.9,18.5C79.2,49.1,54.1,44.7,54.1,44.7s18.4-0.1,18.6-12.3c0.1-11.5-14.1-10.4-14.1-10.4h-8.8v21.9
			c-4.6-1.1-9.2-1.9-13.9-2.5C35.9,38,35.9,10.4,35.9,10.4"/>
	</g>
</g>
</svg>
