<?xml version="1.0" encoding="utf-8"?>
<!-- Generator: Adobe Illustrator 25.2.3, SVG Export Plug-In . SVG Version: 6.00 Build 0)  -->
<svg version="1.1" id="Layer_1" xmlns="http://www.w3.org/2000/svg" xmlns:xlink="http://www.w3.org/1999/xlink" x="0px" y="0px"
	 viewBox="0 0 1280 400" style="enable-background:new 0 0 1280 400;" xml:space="preserve">
<style type="text/css">
	.st0{fill:none;stroke:#000000;stroke-width:2.09;stroke-linecap:round;stroke-linejoin:round;stroke-miterlimit:20.9;}
	.st1{fill:#FFFFFF;}
	.st2{fill:#00AEF0;}
	.st3{fill:#F89420;}
</style>
<desc>Created with Fabric.js 3.6.6</desc>
<g transform="matrix(2.09 0 0 2.09 434.28 185.38)">
	<path class="st0" d="M0,0L0,0"/>
</g>
<g transform="matrix(4.43 0 0 4.43 689.7 145.41)">
	<path class="st1" d="M0.6,7.2c0.9,0,1.7-0.2,2.5-0.6c0.6-0.3,1-0.9,1-1.6c0-0.8-0.5-1.5-1.2-1.7C1.8,2.8,0.6,2.4-0.6,2.1
		c-0.9-0.2-1.7-0.5-2.6-0.8S-4.9,0.5-5.6,0s-1.3-1.2-1.8-2c-0.5-0.9-0.7-1.9-0.7-2.9c-0.1-2,0.8-3.9,2.3-5.2c1.5-1.3,3.7-2,6.6-2
		c1.6,0,3.3,0.2,4.9,0.6C7-11.2,8.3-10.7,9.5-10L8.4-5.2C7.2-5.8,6-6.3,4.7-6.7C3.5-7.1,2.2-7.2,1-7.3c-2,0-3,0.7-3,2
		c0,0.4,0.1,0.7,0.4,1s0.6,0.6,1,0.7c0.5,0.2,1,0.4,1.5,0.6c0.6,0.2,1.2,0.4,1.9,0.6c0.9,0.3,1.8,0.5,2.6,0.9C6.2-1.2,7-0.7,7.7-0.2
		c0.7,0.5,1.2,1.2,1.7,2c0.4,0.9,0.7,1.8,0.6,2.8c0,1-0.2,2.1-0.6,3C9,8.5,8.4,9.3,7.6,10c-0.9,0.7-1.9,1.2-3,1.5
		c-1.3,0.4-2.7,0.6-4,0.6c-1.7,0-3.3-0.2-4.9-0.6c-1.4-0.3-2.7-0.8-4-1.5l1.1-4.9C-6,5.7-4.8,6.2-3.5,6.6S-0.8,7.2,0.6,7.2"/>
</g>
<g transform="matrix(4.43 0 0 4.43 595.54 145.31)">
	<path class="st1" d="M-3.4,11.5h-5.9v-23H0c3.1,0,5.4,0.7,7,2s2.4,3.3,2.4,5.3c0,1.4-0.4,2.8-1.2,4C7.3,1,6.1,1.9,4.7,2.4l5.9,9.1
		H4l-4.6-7.7L-3.3,4L-3.4,11.5z M-0.6-0.5c1,0,2-0.4,2.9-1C3-2.1,3.4-3,3.3-4c0-2-1.5-3-4.4-3h-2.5v6.5H-0.6z"/>
</g>
<g transform="matrix(4.43 0 0 4.43 200.21 267.74)">
	<path class="st2" d="M-39-11.6c38.5-7.3,59.6,1.3,64.3,3.8c15.1,7.7,14.3,17.6,13,21.3c-0.7,1.9-2,0.2-2,0.2S23.2-11.5-39-11.6"/>
</g>
<g transform="matrix(4.43 0 0 4.43 214.88 316.07)">
	<path class="st3" d="M19.3-5.5C26.9-1,29,7.6,27.6,10.6c-0.9,2-2.1,0.7-2.1,0.7S11-5.7-28-10.8C-0.6-13.5,10.9-10.1,19.3-5.5"/>
</g>
<g transform="matrix(4.43 0 0 4.43 264.46 150.42)">
	<path class="st1" d="M-27.6-27c0,0,27.3-0.1,29.8,0c8.3-0.5,22.2,5.5,21.7,20.1c-1.3,12.2-11,15.4-11,15.4S27.2,11.7,27.7,27
		C15.6,11.7-9.4,7.2-9.4,7.2S9,7.1,9.2-5.1C9.2-16.6-5-15.5-5-15.5h-8.8V6.4c-4.6-1.1-9.2-1.9-13.9-2.5C-27.7,0.5-27.6-27-27.6-27"
		/>
</g>
<g transform="matrix(4.43 0 0 4.43 482.48 273.96)">
	<path class="st1" d="M-3.9,11.2h-5.8v-22.7h9.1c3,0,5.3,0.7,6.9,2c1.6,1.3,2.4,3.2,2.3,5.3c0,1.4-0.4,2.8-1.2,4
		C6.5,1,5.3,1.9,3.9,2.4l5.8,9H3.2l-4.5-7.6L-4,4L-3.9,11.2z M-1.1-0.5c1,0,2-0.3,2.8-0.9C2.4-2,2.8-3,2.7-3.9c0-2-1.4-3-4.3-3H-4
		v6.4L-1.1-0.5z"/>
</g>
<g transform="matrix(4.43 0 0 4.43 576.06 273.74)">
	<path class="st1" d="M-8.3,11.3v-22.7H8.3v4.7h-11v4.3h8.8v4.7h-8.8v4.4h11v4.7L-8.3,11.3L-8.3,11.3z"/>
</g>
<g transform="matrix(4.43 0 0 4.43 664.52 273.88)">
	<path class="st1" d="M-0.2,7.1c0.9,0,1.7-0.2,2.5-0.5c0.6-0.3,1-0.9,1-1.6c0-0.4-0.1-0.7-0.3-1C2.8,3.7,2.4,3.5,2.1,3.3
		c-0.5-0.2-1-0.4-1.5-0.6C0,2.5-0.6,2.3-1.4,2.1c-0.9-0.2-1.7-0.5-2.5-0.8S-5.5,0.5-6.2,0C-7-0.5-7.5-1.2-8-2
		c-0.5-0.9-0.7-1.9-0.7-2.9c-0.1-2,0.8-3.8,2.3-5.1c1.5-1.3,3.7-1.9,6.5-1.9c1.6,0,3.2,0.2,4.8,0.5c1.3,0.3,2.6,0.8,3.7,1.5L7.5-5.1
		C6.3-5.7,5.1-6.2,3.8-6.6C2.6-6.9,1.4-7.1,0.1-7.1c-2,0-3,0.6-3,1.9c0,0.4,0.1,0.7,0.4,1s0.6,0.6,1,0.7C-1-3.3-0.5-3.1,0-2.9
		c0.6,0.2,1.2,0.4,1.9,0.6c0.9,0.2,1.7,0.5,2.6,0.9c0.8,0.3,1.6,0.8,2.3,1.3C7.5,0.4,8,1.1,8.4,1.8C8.8,2.7,9,3.6,9,4.6
		s-0.2,2-0.6,3C8,8.5,7.4,9.3,6.6,9.9c-0.9,0.7-1.8,1.2-2.9,1.5c-1.3,0.4-2.6,0.6-4,0.5c-1.6,0-3.3-0.2-4.9-0.6
		c-1.4-0.3-2.7-0.8-3.9-1.5L-8,5c1.2,0.6,2.4,1.1,3.7,1.5C-2.9,6.9-1.5,7.1-0.2,7.1"/>
</g>
<g transform="matrix(4.43 0 0 4.43 758.26 273.74)">
	<path class="st1" d="M-8.3,11.3v-22.7H8.3v4.7h-11v4.3h8.8v4.7h-8.8v4.4h11v4.7L-8.3,11.3L-8.3,11.3z"/>
</g>
<g transform="matrix(4.43 0 0 4.43 855.42 273.96)">
	<path class="st1" d="M-3.9,11.2h-5.8v-22.7h9.1c3,0,5.3,0.7,6.9,2s2.4,3.2,2.3,5.3c0,1.4-0.4,2.8-1.2,4C6.5,1,5.3,1.9,3.9,2.4
		l5.8,9H3.2l-4.6-7.6L-4.1,4L-3.9,11.2z M-1.1-0.5c1,0,2-0.3,2.8-0.9C2.4-2,2.8-3,2.7-3.9c0-2-1.4-3-4.3-3H-4v6.4L-1.1-0.5z"/>
</g>
<g transform="matrix(4.43 0 0 4.43 949.99 273.51)">
	<path class="st1" d="M3.5,11.3h-7.2l-7.7-22.7h6L0,5.7l5.4-17.1h6L3.5,11.3z"/>
</g>
<g transform="matrix(4.43 0 0 4.43 1043.78 273.51)">
	<path class="st1" d="M11.6,11.3H5.9L4.2,6.5h-8.4l-1.6,4.8h-5.8l8.1-22.7h7.2L11.6,11.3z M0-6.9L-3,2h5.9L0-6.9z"/>
</g>
<g transform="matrix(4.43 0 0 4.43 1140.28 273.88)">
	<path class="st1" d="M-0.2,7.1c0.9,0,1.7-0.2,2.5-0.5c0.6-0.3,1-0.9,1-1.6c0-0.4-0.1-0.7-0.3-1C2.8,3.7,2.5,3.5,2.1,3.3
		c-0.5-0.2-1-0.4-1.5-0.6C0,2.5-0.6,2.3-1.4,2.1c-0.9-0.2-1.7-0.5-2.5-0.8S-5.5,0.5-6.2,0C-7-0.5-7.5-1.2-8-2
		c-0.5-0.9-0.7-1.9-0.7-2.9c-0.1-2,0.8-3.8,2.3-5.1c1.5-1.3,3.7-1.9,6.5-1.9c1.6,0,3.2,0.2,4.8,0.5c1.3,0.3,2.6,0.8,3.7,1.5L7.5-5.1
		C6.3-5.7,5.1-6.2,3.8-6.6C2.6-6.9,1.4-7.1,0.1-7.1c-2,0-3,0.6-3,1.9c0,0.4,0.1,0.7,0.4,1s0.6,0.6,1,0.7C-1-3.3-0.5-3.1,0-2.9
		c0.6,0.2,1.2,0.4,1.9,0.6c0.9,0.2,1.7,0.5,2.6,0.9c0.8,0.3,1.6,0.8,2.3,1.3C7.5,0.4,8,1.1,8.4,1.8C8.8,2.7,9,3.6,9,4.6
		s-0.2,2-0.6,3C8,8.5,7.4,9.3,6.6,9.9c-0.9,0.7-1.9,1.2-2.9,1.5c-1.3,0.4-2.6,0.6-4,0.5c-1.6,0-3.3-0.2-4.9-0.6
		c-1.4-0.3-2.7-0.8-3.9-1.5L-8,5c1.2,0.6,2.4,1.1,3.7,1.5C-2.9,6.9-1.5,7.1-0.2,7.1"/>
</g>
<g transform="matrix(4.43 0 0 4.43 489.92 146.25)">
	<path class="st1" d="M11.6,11.3H5.9L4.2,6.5h-8.4l-1.6,4.8h-5.8l8.1-22.7h7.2L11.6,11.3z M0-6.9L-3,2h5.9L0-6.9z"/>
</g>
</svg>
